<svg width="67" height="43" viewBox="0 0 67 43" fill="none" xmlns="http://www.w3.org/2000/svg">
<path fill-rule="evenodd" clip-rule="evenodd" d="M17.3329 0.791504L60.1247 0.791504C63.3924 0.791504 66.0413 3.44049 66.0413 6.70817V36.2915C66.0413 39.5592 63.3924 42.2082 60.1247 42.2082L17.3329 42.2082C15.3547 42.2082 13.5073 41.2195 12.41 39.5735L1.45486 23.1408C0.792391 22.1471 0.792391 20.8526 1.45486 19.8589L12.41 3.42619C13.5073 1.78019 15.3547 0.791504 17.3329 0.791504ZM7.47192 21.4997L17.333 36.2913L60.1248 36.2913L60.1248 6.70801L17.333 6.70801L7.47192 21.4997ZM21.6664 21.4998C21.6664 23.1337 20.3419 24.4582 18.7081 24.4582C17.0742 24.4582 15.7498 23.1337 15.7498 21.4998C15.7498 19.866 17.0742 18.5415 18.7081 18.5415C20.3419 18.5415 21.6664 19.866 21.6664 21.4998Z" fill="white"/>
</svg>
