<svg width="45" height="45" viewBox="0 0 45 45" fill="none" xmlns="http://www.w3.org/2000/svg">
<path fill-rule="evenodd" clip-rule="evenodd" d="M13.667 9.24984H9.25033V7.0415H4.83366V13.6665H40.167V7.0415H35.7503V9.24984H31.3337V7.0415H13.667V9.24984ZM40.167 18.0832H4.83366V40.1665H40.167V18.0832ZM31.3337 2.62484H13.667V0.416504H9.25033V2.62484H4.83366C2.3944 2.62484 0.416992 4.60225 0.416992 7.0415V40.1665C0.416992 42.6058 2.3944 44.5832 4.83366 44.5832H40.167C42.6063 44.5832 44.5837 42.6058 44.5837 40.1665V7.0415C44.5837 4.60225 42.6063 2.62484 40.167 2.62484H35.7503V0.416504H31.3337V2.62484ZM11.4587 26.9165V22.4998H15.8753V26.9165H11.4587ZM20.292 26.9165H24.7087V22.4998H20.292V26.9165ZM33.542 26.9165H29.1253V22.4998H33.542V26.9165ZM11.4587 31.3332V35.7498H15.8753V31.3332H11.4587ZM24.7087 35.7498H20.292V31.3332H24.7087V35.7498Z" fill="white"/>
</svg>
