<svg width="35" height="35" viewBox="0 0 35 35" fill="none" xmlns="http://www.w3.org/2000/svg">
<path fill-rule="evenodd" clip-rule="evenodd" d="M17.5003 34.4582C8.1345 34.4582 0.541992 26.8657 0.541992 17.4998C0.541992 8.13401 8.1345 0.541504 17.5003 0.541504C26.8662 0.541504 34.4587 8.13401 34.4587 17.4998C34.4587 26.8657 26.8662 34.4582 17.5003 34.4582ZM17.5003 31.3748C25.1633 31.3748 31.3753 25.1628 31.3753 17.4998C31.3753 9.83689 25.1633 3.62484 17.5003 3.62484C9.83737 3.62484 3.62533 9.83689 3.62533 17.4998C3.62533 25.1628 9.83737 31.3748 17.5003 31.3748ZM25.2087 15.9582H19.042V8.24984H15.9587V19.0415H25.2087V15.9582Z" fill="#FFFFFF"/>
</svg>
